<svg data-name="Committees System" xmlns="http://www.w3.org/2000/svg" width="66" height="49.539"><g data-name="Group 2423" fill="#006bff" fill-rule="evenodd"><path data-name="Path 11081" d="M33.85 4.572a8.517 8.517 0 00-4.332 0v-.165a1.525 1.525 0 011.525-1.525h.078a1.586 1.586 0 01-.52-.338 1.49 1.49 0 112.105 0 1.586 1.586 0 01-.52.338h.121a1.525 1.525 0 011.534 1.525v.165z"/><path data-name="Path 11082" d="M30.609 24.924a1.49 1.49 0 010-2.105 1.352 1.352 0 01.52-.338h-.121a1.525 1.525 0 01-1.525-1.525V20.8a8.517 8.517 0 004.332 0v.165a1.525 1.525 0 01-1.534 1.525h-.121a1.352 1.352 0 01.52.338 1.49 1.49 0 11-2.107 2.105z"/><path data-name="Path 11083" d="M37.602 6.739a8.292 8.292 0 00-1.733-1.336l.12-.12a1.534 1.534 0 012.157 0l.087.087a1.4 1.4 0 01-.182-.6 1.49 1.49 0 111.49 1.482 1.577 1.577 0 01-.606-.121l.087.087a1.525 1.525 0 010 2.157l-.1.121a8.56 8.56 0 00-1.32-1.757z"/><path data-name="Path 11084" d="M22.266 20.593a1.49 1.49 0 011.482-1.525 1.551 1.551 0 01.606.13l-.086-.087a1.525 1.525 0 010-2.157l.113-.113a8.517 8.517 0 003.093 3.093l-.121.113a1.525 1.525 0 01-2.157 0l-.087-.078a1.369 1.369 0 01.13.6 1.49 1.49 0 11-2.972 0z"/><path data-name="Path 11085" d="M39.785 10.499h.165a1.525 1.525 0 011.525 1.525v.113a1.412 1.412 0 01.338-.52 1.49 1.49 0 110 2.105 1.386 1.386 0 01-.338-.511v.121a1.525 1.525 0 01-1.525 1.525h-.165a8.482 8.482 0 000-4.358z"/><path data-name="Path 11086" d="M21.858 13.341v-.121a1.482 1.482 0 11-.329-1.594 1.508 1.508 0 01.329.52v-.121a1.525 1.525 0 011.531-1.526h.156a8.482 8.482 0 000 4.332h-.156a1.525 1.525 0 01-1.534-1.49z"/><path data-name="Path 11087" d="M38.052 20.592a1.369 1.369 0 01.13-.6l-.087.078a1.525 1.525 0 01-2.157 0l-.087-.139a8.517 8.517 0 003.067-3.058l.113.113a1.525 1.525 0 010 2.157l-.087.087a1.585 1.585 0 01.606-.13 1.49 1.49 0 11-1.5 1.49z"/><path data-name="Path 11088" d="M24.387 8.497l-.12-.121a1.525 1.525 0 010-2.157l.087-.087a1.542 1.542 0 01-.606.121 1.49 1.49 0 111.489-1.481 1.4 1.4 0 01-.13.6l.087-.087a1.534 1.534 0 012.157 0l.121.121a8.344 8.344 0 00-3.092 3.083z"/><path data-name="Path 11089" d="M26.141 18.201a7.8 7.8 0 01-1.681-2.5 7.382 7.382 0 005.008.121.286.286 0 00.182-.165l.243-.147a15.8 15.8 0 004.245-4.427v-.078l.087-.225a7.416 7.416 0 00-.748-5.626 7.893 7.893 0 015.094 4.02l3.994-3.994.364-.113.78-.147-4.791 4.8a7.8 7.8 0 01.572 3.041l6.715-6.689v.866l-6.81 6.81a7.8 7.8 0 01-13.254 4.453zm7.581 1.2l5.692-5.692a8.666 8.666 0 00.061-.953l-6.619 6.645zm3.613 0l3.422-3.422.606.277-3.145 3.145zm-5.666-2.443l7.252-7.243c-.087-.2-.182-.407-.277-.606l-6.654 6.663zm-7.48-2.058a7.8 7.8 0 01-.321-2.764 4.826 4.826 0 001.187.866 4.67 4.67 0 004.878-7.918 7.8 7.8 0 012.764-.13 6.793 6.793 0 011.161 4.583l-.139 1.005-.069.182-.866 1.222a14.824 14.824 0 01-2.043 2.122l-1.144.866-.572.364-.338.1a6.8 6.8 0 01-4.5-.494zm1.126-2.478a4.081 4.081 0 01-1.352-1.092 7.85 7.85 0 011.344-3.205 1.954 1.954 0 10.866-1.005 7.711 7.711 0 012.946-1.828 4.046 4.046 0 01-3.8 7.131zm1.226-2.443a1.317 1.317 0 111.733-.589 1.317 1.317 0 01-1.733.589z"/></g><text data-name="Committees System" transform="translate(0 35.31)" fill="#0c66e1" font-size="6" font-family="Montserrat-Medium, Montserrat" font-weight="500" letter-spacing=".045em"><tspan x="0" y="0">Committees System</tspan></text><text data-name="نـظـــام إدارة اللـجــان" transform="translate(0 46.539)" fill="#0c66e1" font-size="9.4" font-family="DINNextLTArabic-Regular, DIN Next LT Arabic"><tspan x="0" y="0">نـظـــام إدارة اللـجــان</tspan></text></svg>